<svg width="800" height="450" viewBox="0 0 800 450" xmlns="http://www.w3.org/2000/svg" role="img" aria-label="Pixel game animation sprite sheet">
  <defs>
    <filter id="shadow" x="-20%" y="-20%" width="140%" height="140%">
      <feDropShadow dx="0" dy="4" stdDeviation="4" flood-color="#000" flood-opacity="0.25" />
    </filter>
  </defs>
  <rect width="800" height="450" fill="#0c1527" rx="24" />
  <rect x="32" y="32" width="736" height="386" fill="#112141" rx="18" stroke="#3c7cff" stroke-width="4" />
  <g filter="url(#shadow)">
    <rect x="60" y="70" width="88" height="96" rx="16" fill="#e9f0ff" />
    <rect x="170" y="70" width="88" height="96" rx="16" fill="#e9f0ff" />
    <rect x="280" y="70" width="88" height="96" rx="16" fill="#e9f0ff" />
    <rect x="390" y="70" width="88" height="96" rx="16" fill="#e9f0ff" />
    <path d="M88 86h56v20h-56z" fill="#0f1f3b" />
    <path d="M88 118h56v10h-56z" fill="#0f1f3b" />
    <path d="M88 128h56v15h-56z" fill="#4a6cff" />
    <path d="M120 134h16v16h-16z" fill="#ffffff" />
    <path d="M190 86h56v20h-56z" fill="#0f1f3b" />
    <path d="M190 118h56v10h-56z" fill="#0f1f3b" />
    <path d="M190 128h56v15h-56z" fill="#4a6cff" />
    <path d="M220 134h16v16h-16z" fill="#ffffff" />
    <path d="M310 86h56v20h-56z" fill="#0f1f3b" />
    <path d="M310 118h56v10h-56z" fill="#0f1f3b" />
    <path d="M310 128h56v15h-56z" fill="#4a6cff" />
    <path d="M340 134h16v16h-16z" fill="#ffffff" />
    <path d="M420 86h56v20h-56z" fill="#0f1f3b" />
    <path d="M420 118h56v10h-56z" fill="#0f1f3b" />
    <path d="M420 128h56v15h-56z" fill="#4a6cff" />
    <path d="M450 134h16v16h-16z" fill="#ffffff" />
  </g>
  <g>
    <rect x="120" y="210" width="140" height="56" rx="28" fill="#d6edff" stroke="#7ac4ff" stroke-width="3" />
    <rect x="280" y="210" width="140" height="56" rx="28" fill="#d6edff" stroke="#7ac4ff" stroke-width="3" />
    <rect x="440" y="210" width="140" height="56" rx="28" fill="#d6edff" stroke="#7ac4ff" stroke-width="3" />
    <rect x="590" y="210" width="140" height="56" rx="28" fill="#d6edff" stroke="#7ac4ff" stroke-width="3" />
    <path d="M140 242h80v10h-80z" fill="#5a88c8" />
    <path d="M300 242h80v10h-80z" fill="#5a88c8" />
    <path d="M460 242h80v10h-80z" fill="#5a88c8" />
    <path d="M610 242h80v10h-80z" fill="#5a88c8" />
  </g>
  <g>
    <circle cx="120" cy="340" r="28" fill="#ffe158" stroke="#f6ca37" stroke-width="4" />
    <circle cx="120" cy="340" r="12" fill="#fff8a6" />
    <rect x="220" y="320" width="64" height="48" rx="10" fill="#ffd784" stroke="#d2992b" stroke-width="4" />
    <rect x="220" y="330" width="64" height="16" fill="#e1a53d" />
    <circle cx="360" cy="342" r="28" fill="#cfe8ff" stroke="#83baff" stroke-width="4" />
    <circle cx="360" cy="342" r="12" fill="#ffffff" />
    <rect x="480" y="328" width="54" height="44" rx="10" fill="#ff4c5a" stroke="#d62b34" stroke-width="4" />
    <circle cx="502" cy="348" r="8" fill="#ffffff" />
  </g>
  <text x="80" y="430" fill="#a6c9ff" font-family="Inter, system-ui, sans-serif" font-size="24">Game Animation Design</text>
</svg>
