<svg width="800" height="520" viewBox="0 0 800 520" xmlns="http://www.w3.org/2000/svg" role="img" aria-label="Paper cut style mountain scene with wolf">
  <defs>
    <linearGradient id="skyGrad" x1="0" y1="0" x2="0" y2="1">
      <stop offset="0%" stop-color="#e8f5ff"/>
      <stop offset="100%" stop-color="#bad4ff"/>
    </linearGradient>
    <linearGradient id="mountainGrad" x1="0" y1="0" x2="1" y2="1">
      <stop offset="0%" stop-color="#7aa3d9"/>
      <stop offset="100%" stop-color="#3f6cc5"/>
    </linearGradient>
  </defs>
  <rect width="800" height="520" rx="36" fill="#f2f7ff"/>
  <rect x="28" y="28" width="744" height="464" rx="28" fill="url(#skyGrad)"/>
  <g opacity="0.9">
    <path d="M86 420 Q220 310 360 408 Q500 510 640 360 Q760 190 796 418 L86 418 Z" fill="#c8dbff"/>
    <path d="M62 364 Q176 250 320 340 Q436 408 588 264 Q724 146 796 360 L62 360 Z" fill="#a9c5f2"/>
    <path d="M34 300 Q138 198 278 286 Q402 348 558 210 Q688 106 796 314 L34 314 Z" fill="#7fa3dd"/>
    <path d="M0 240 Q112 150 246 226 Q364 286 524 158 Q680 58 800 222 L0 222 Z" fill="url(#mountainGrad)"/>
  </g>
  <g transform="translate(170 140)">
    <circle cx="240" cy="68" r="50" fill="#f4f8ff"/>
    <circle cx="240" cy="68" r="42" fill="#d7e8ff"/>
  </g>
  <g fill="#1f3563" opacity="0.95">
    <path d="M550 320 C520 320 520 280 500 260 C470 240 460 260 440 240 C420 220 400 230 390 225 C380 220 330 208 310 220 C290 232 288 240 278 252 C268 264 252 290 258 318 C264 346 286 360 310 360 C334 360 360 346 380 336 C400 326 440 314 460 310 C480 306 560 292 550 320 Z"/>
    <path d="M482 328 C470 312 428 328 412 338 C400 344 374 356 354 358 C334 360 310 354 300 340 C290 326 288 300 300 286 C312 272 334 280 350 284 C366 288 382 288 398 286 C414 284 432 276 450 264 C468 252 488 236 500 224 C512 212 532 206 548 212 C564 218 570 232 566 248 C562 264 548 282 532 296 C516 310 502 318 482 328 Z"/>
  </g>
  <g fill="#f7fbff" opacity="0.93">
    <path d="M418 218 C428 208 440 200 452 196 C464 192 472 196 478 204 C484 212 490 222 494 236 C498 250 496 266 488 280 C480 294 468 304 454 310 C440 316 428 316 416 312 C404 308 398 300 396 288 C394 276 398 262 406 250 C414 238 422 230 434 222 C446 214 456 214 466 216 C476 218 408 286 418 218 Z"/>
  </g>
  <circle cx="160" cy="300" r="14" fill="#ffffff" opacity="0.55"/>
  <circle cx="620" cy="120" r="8" fill="#ffffff" opacity="0.67"/>
  <circle cx="460" cy="90" r="6" fill="#ffffff" opacity="0.65"/>
  <circle cx="520" cy="160" r="4" fill="#ffffff" opacity="0.6"/>
</svg>
